<svg width="200" height="47" viewBox="0 0 200 47" fill="none" xmlns="http://www.w3.org/2000/svg">
<g clip-path="url(#clip0_500_515)">
<path d="M24.248 12.5267H17.5637C17.1723 10.002 15.2818 8.47282 12.1959 8.47282C9.17326 8.47282 7.50218 9.68248 7.50218 11.4241C7.50218 13.5941 9.74198 14.3403 15.4011 15.5149C22.0854 16.9019 24.3533 20.2078 24.3533 24.5478C24.3533 30.094 19.1277 33.4737 12.6558 33.4737C5.50814 33.4737 0.282532 29.5972 -0.00183105 23.4084H6.64734C6.9984 26.1824 9.42076 28.0329 13.1175 28.0329C15.7505 28.0329 17.7041 26.7161 17.7041 24.8323C17.7041 22.52 15.7487 21.5948 10.5933 20.6344C4.30047 19.4616 0.886363 16.865 0.886363 11.4241C0.886363 6.19745 6.07861 3.06708 12.6207 3.06708C19.0926 3.06708 23.9285 7.01561 24.248 12.5267Z" fill="white"/>
<path d="M45.6174 26.9393H34.3833L32.3577 32.5574H25.6716L36.9057 3.57465H43.6251L54.8592 32.5574H47.6448L45.6174 26.9393ZM43.6269 21.3211L40.0004 11.2224L36.3738 21.3211H43.6269Z" fill="white"/>
<path d="M57.4467 3.57465H78.9933V9.19283H63.9185V15.0972H77.7558V20.7154H63.9185V26.9393H79.3127V32.5574H57.4467V3.57465Z" fill="white"/>
<path d="M101.091 32.5293L95.4738 23.3892H90.3166V32.5293H83.8447V3.54474H95.5071C102.867 3.54474 107.17 7.45639 107.17 13.4678C107.17 17.4497 105.286 20.5081 101.872 22.1093L108.593 32.5293H101.091ZM90.3166 17.6622H95.2315C98.6456 17.6622 100.708 16.2032 100.708 13.4661C100.708 10.729 98.6439 9.27001 95.2228 9.27001H90.3078L90.3166 17.6622Z" fill="white"/>
<path d="M129.827 26.9251H118.593L116.567 32.5433H109.878L121.112 3.55878H127.833L139.067 32.5433H131.854L129.827 26.9251ZM127.837 21.307L124.21 11.2065L120.585 21.3052L127.837 21.307Z" fill="white"/>
<path d="M173.55 3.4411H178.955L193.426 20.7978V3.4411H199.898V32.5345H194.493L180.022 14.5739V32.5345H173.55V3.4411Z" fill="white"/>
<path d="M0.00549316 37.7331H6.27201V39.3501H1.88369V41.0478H5.91041V42.6631H1.8872V44.4538H6.36504V46.0691H0.00549316V37.7331Z" fill="white"/>
<path d="M7.6272 37.7332H9.19821L13.411 42.7456V37.6313H15.2927V45.9673H13.7129L9.50013 40.9549V46.0692H7.6272V37.7332Z" fill="white"/>
<path d="M23.6638 39.3799H20.9238V46.0691H19.0421V39.3799H16.302V37.7331H23.6638V39.3799Z" fill="white"/>
<path d="M24.6763 37.7331H30.9428V39.3501H26.5545V41.0478H30.5777V42.6631H26.558V44.4538H31.0358V46.0691H24.6763V37.7331Z" fill="white"/>
<path d="M37.3127 46.0691L35.6785 43.4356H34.1795V46.0691H32.2925V37.7331H35.6838C37.8235 37.7331 39.0751 38.8585 39.0751 40.5878C39.0751 41.7325 38.5274 42.6121 37.5339 43.0721L39.4893 46.0691H37.3127ZM34.1795 41.794H35.6065C36.5983 41.794 37.1986 41.3744 37.1986 40.5878C37.1986 39.8013 36.5983 39.3799 35.6065 39.3799H34.1795V41.794Z" fill="white"/>
<path d="M47.0742 39.3799H44.3341V46.0691H42.4506V39.3799H39.7106V37.7331H47.0742V39.3799Z" fill="white"/>
<path d="M52.0262 44.4538H48.7595L48.1698 46.0691H46.2249L49.495 37.7331H51.4487L54.7171 46.0691H52.6107L52.0262 44.4538ZM51.4469 42.8369L50.3938 39.933L49.3406 42.8369H51.4469Z" fill="white"/>
<path d="M57.4451 37.7331V46.0691H55.5634V37.7331H57.4451Z" fill="white"/>
<path d="M58.9332 37.7332H60.513L64.7258 42.7456V37.6313H66.6075V45.9673H65.0365L60.8237 40.9549V46.0692H58.9332V37.7332Z" fill="white"/>
<path d="M68.0841 37.7331H69.5832L72.49 42.398L75.395 37.7331H76.8941V46.0691H75.0124V41.5043L73.0587 44.6996H71.9212L69.9658 41.4973V46.0621H68.0841V37.7331Z" fill="white"/>
<path d="M78.3826 37.7331H84.6491V39.3501H80.2608V41.0478H84.284V42.6631H80.2643V44.4538H84.7421V46.0691H78.3826V37.7331Z" fill="white"/>
<path d="M86.0055 37.7332H87.5853L91.798 42.7456V37.6313H93.6797V45.9673H92.1L87.8872 40.9549V46.0692H86.0055V37.7332Z" fill="white"/>
<path d="M102.04 39.3799H99.3001V46.0691H97.4149V39.3799H94.6783V37.7331H102.04V39.3799Z" fill="white"/>
<path d="M109.411 46.0901L109.07 45.6916C108.433 46.071 107.706 46.2723 106.964 46.2745C105 46.2745 103.82 45.272 103.82 43.8499C103.82 42.714 104.545 41.9889 105.526 41.478C105.093 40.9144 104.793 40.3526 104.793 39.6871C104.793 38.3985 105.941 37.5084 107.45 37.5084C108.96 37.5084 110.025 38.3581 110.025 39.5643C110.025 40.7002 109.218 41.3954 108.184 41.9274L109.27 43.195C109.448 42.8198 109.57 42.4206 109.632 42.0099H111.282C111.199 42.9016 110.881 43.7553 110.361 44.4837L111.726 46.0901H109.411ZM108.098 44.5346L106.518 42.6841C105.979 42.9703 105.66 43.2775 105.66 43.7586C105.66 44.3608 106.197 44.8014 107.076 44.8014C107.434 44.8015 107.786 44.7096 108.098 44.5346ZM106.609 39.6362C106.609 40.0453 106.857 40.3719 107.199 40.781C107.808 40.5053 108.252 40.1682 108.252 39.6468C108.26 39.5391 108.245 39.431 108.209 39.3293C108.173 39.2276 108.116 39.1344 108.042 39.0557C107.968 38.9769 107.879 38.9142 107.78 38.8715C107.681 38.8288 107.574 38.807 107.466 38.8075C107.355 38.8025 107.243 38.8203 107.139 38.8598C107.035 38.8993 106.939 38.9597 106.859 39.0373C106.779 39.1149 106.715 39.208 106.673 39.311C106.63 39.414 106.608 39.5247 106.609 39.6362Z" fill="white"/>
<path d="M120.722 39.3799H117.982V46.0691H116.101V39.3799H113.36V37.7331H120.722V39.3799Z" fill="white"/>
<path d="M121.735 37.7331H128.002V39.3501H123.614V41.0478H127.637V42.6631H123.617V44.4538H128.095V46.0691H121.735V37.7331Z" fill="white"/>
<path d="M128.86 41.8906C128.86 39.3642 130.774 37.5137 133.368 37.5137C135.685 37.5137 137.23 38.8954 137.581 40.6546H135.682C135.485 39.8558 134.628 39.222 133.417 39.222C132.721 39.2398 132.06 39.5289 131.574 40.0276C131.088 40.5263 130.816 41.1951 130.816 41.8915C130.816 42.5879 131.088 43.2567 131.574 43.7554C132.06 44.2541 132.721 44.5431 133.417 44.561C134.627 44.561 135.62 43.7727 135.764 43.016H137.667C137.409 44.6944 135.713 46.2693 133.375 46.2693C130.767 46.2798 128.86 44.4223 128.86 41.8906Z" fill="white"/>
<path d="M146.231 37.7331V46.0691H144.349V42.6841H140.626V46.0691H138.745V37.7331H140.626V41.0373H144.349V37.7331H146.231Z" fill="white"/>
<path d="M147.719 37.7332H149.299L153.512 42.7456V37.6313H155.395V45.9673H153.815L149.603 40.9549V46.0692H147.719V37.7332Z" fill="white"/>
<path d="M156.498 41.8906C156.498 39.3642 158.428 37.5137 161.047 37.5137C163.666 37.5137 165.599 39.3642 165.599 41.8906C165.599 44.417 163.668 46.2693 161.047 46.2693C158.427 46.2693 156.498 44.4223 156.498 41.8906ZM163.715 41.8906C163.715 40.3105 162.578 39.1904 161.047 39.1904C159.517 39.1904 158.381 40.3158 158.381 41.8906C158.381 43.4654 159.518 44.5908 161.047 44.5908C162.576 44.5908 163.715 43.4707 163.715 41.8906Z" fill="white"/>
<path d="M168.597 37.7331V44.4223H172.81V46.0691H166.719V37.7331H168.597Z" fill="white"/>
<path d="M173.208 41.8906C173.208 39.3642 175.139 37.5137 177.758 37.5137C180.377 37.5137 182.308 39.3642 182.308 41.8906C182.308 44.417 180.377 46.2693 177.758 46.2693C175.139 46.2693 173.208 44.4223 173.208 41.8906ZM180.426 41.8906C180.426 40.3105 179.289 39.1904 177.758 39.1904C176.228 39.1904 175.09 40.3158 175.09 41.8906C175.09 43.4654 176.228 44.5908 177.758 44.5908C179.289 44.5908 180.426 43.4707 180.426 41.8906Z" fill="white"/>
<path d="M191.841 40.3105H189.774C189.422 39.6978 188.626 39.2272 187.602 39.2272C187.249 39.2157 186.897 39.2769 186.568 39.407C186.239 39.537 185.94 39.7332 185.69 39.9833C185.44 40.2335 185.244 40.5322 185.114 40.8612C184.984 41.1902 184.923 41.5423 184.934 41.8959C184.934 43.4619 186.072 44.5961 187.602 44.5961C188.915 44.5961 189.824 43.799 190.021 42.9809H187.446V41.4008H192.027V41.8906C192.027 44.417 190.114 46.2693 187.56 46.2693C184.964 46.2693 183.052 44.417 183.052 41.8906C183.052 39.3642 184.964 37.5137 187.56 37.5137C189.763 37.5189 191.355 38.7462 191.841 40.3105Z" fill="white"/>
<path d="M196.846 43.4514V46.0691H194.964V43.4514L191.805 37.7331H193.958L195.986 41.6711L198.003 37.7331H199.998L196.846 43.4514Z" fill="white"/>
<path d="M154.727 32.5486C151.488 32.5479 148.329 31.5432 145.685 29.6728C143.04 27.8024 141.04 25.1582 139.96 22.1042C138.88 19.0502 138.773 15.7364 139.654 12.619C140.535 9.50162 142.359 6.7338 144.877 4.6965C145.181 4.45071 145.495 4.21545 145.813 3.99423C146.432 3.57859 147.189 3.42307 147.921 3.56131C148.653 3.69955 149.302 4.12043 149.726 4.73299C150.151 5.34555 150.317 6.10059 150.19 6.83491C150.062 7.56924 149.651 8.22387 149.045 8.65732C148.841 8.79778 148.641 8.94876 148.446 9.10502C146.84 10.4047 145.675 12.1704 145.114 14.1592C144.552 16.1479 144.62 18.2619 145.309 20.2103C145.998 22.1586 147.273 23.8456 148.96 25.039C150.647 26.2324 152.662 26.8736 154.728 26.8743H154.823C156.835 26.8555 158.794 26.23 160.445 25.0795C162.095 23.929 163.36 22.307 164.074 20.4258C164.788 18.5445 164.918 16.4915 164.447 14.5353C163.975 12.5791 162.924 10.8107 161.432 9.46142C161.105 9.16587 160.759 8.89255 160.396 8.64327C159.777 8.21628 159.353 7.56077 159.217 6.82094C159.081 6.0811 159.244 5.31755 159.671 4.69825C160.098 4.07895 160.754 3.65464 161.493 3.51866C162.233 3.38268 162.996 3.54618 163.616 3.97316C164.184 4.36355 164.725 4.79173 165.236 5.25481C167.575 7.3693 169.223 10.1408 169.962 13.2069C170.701 16.2729 170.498 19.4908 169.379 22.4395C168.26 25.3882 166.277 27.9304 163.69 29.7338C161.103 31.5371 158.032 32.5176 154.879 32.5469L154.727 32.5486Z" fill="white"/>
<path d="M154.718 0H154.665C153.219 0 152.047 1.17278 152.047 2.61948V7.2931C152.047 8.7398 153.219 9.91258 154.665 9.91258H154.718C156.165 9.91258 157.337 8.7398 157.337 7.2931V2.61948C157.337 1.17278 156.165 0 154.718 0Z" fill="white"/>
</g>
<defs>
<clipPath id="clip0_500_515">
<rect width="200" height="46.2745" fill="white"/>
</clipPath>
</defs>
</svg>
