<svg width="125" height="29" viewBox="0 0 125 29" fill="none" xmlns="http://www.w3.org/2000/svg">
<g clip-path="url(#clip0_36_2641)">
<path d="M15.1271 7.59383H10.966C10.7224 6.02218 9.54552 5.07023 7.62452 5.07023C5.74287 5.07023 4.70261 5.82218 4.70261 6.90746C4.70261 8.25724 6.09691 8.72283 9.61982 9.45291C13.7809 10.3163 15.1927 12.3754 15.1927 15.0761C15.1927 18.5298 11.9386 20.6326 7.91081 20.6326C3.46128 20.6326 0.20827 18.2205 0.03125 14.3678H4.17045C4.389 16.0947 5.89694 17.2456 8.1982 17.2456C9.83727 17.2456 11.0535 16.4269 11.0535 15.2531C11.0535 13.8148 9.83618 13.2388 6.62687 12.641C2.70949 11.9109 0.584163 10.2945 0.584163 6.90746C0.584163 3.6527 3.81641 1.70508 7.88896 1.70508C11.9178 1.70508 14.926 4.162 15.1271 7.59383Z" fill="#1E1E1E"/>
<path d="M28.4306 16.6925H21.4372L20.1762 20.1899H16.0195L23.0129 2.1499H27.1969L34.1903 20.1921H29.6927L28.4306 16.6925ZM27.1915 13.1951L24.9339 6.90855L22.6764 13.1951H27.1915Z" fill="#1E1E1E"/>
<path d="M36 2.1499H49.4142V5.6473H40.0288V9.32285H48.6394V12.8202H40.0288V16.6947H49.613V20.1921H36V2.1499Z" fill="#1E1E1E"/>
<path d="M63.0473 20.1899L59.5506 14.5066H56.3402V20.1899H52.3125V2.1499H59.5725C64.1542 2.1499 66.8325 4.58497 66.8325 8.32609C66.8325 10.806 65.6589 12.7099 63.5347 13.7055L67.7176 20.1921L63.0473 20.1899ZM56.3402 10.936H59.3998C61.5241 10.936 62.808 10.0289 62.808 8.3239C62.808 6.61892 61.5241 5.71179 59.3998 5.71179H56.3402V10.936Z" fill="#1E1E1E"/>
<path d="M80.8434 16.6925H73.85L72.5879 20.1899H68.4258L75.4191 2.14771H79.6021L86.5954 20.1899H82.1044L80.8434 16.6925ZM79.6032 13.1951L77.3456 6.90854L75.0881 13.1951H79.6032Z" fill="#1E1E1E"/>
<path d="M108.598 2.14974H111.959L120.969 12.9971V1.93115H124.996V19.9646H121.632L112.624 9.11612V20.1898H108.595L108.598 2.14974Z" fill="#1E1E1E"/>
<path d="M0 23.6621H3.91629V24.672H1.17576V25.7332H3.689V26.7409H1.17576V27.8601H3.9753V28.8699H0V23.6621Z" fill="#1E1E1E"/>
<path d="M4.76465 23.662H5.74809L8.37825 26.7944V23.5986H9.55511V28.8076H8.57166L5.94041 25.6752V28.8721H4.76465V23.662Z" fill="#1E1E1E"/>
<path d="M14.787 24.6917H13.0747V28.8721H11.8978V24.6917H10.1855V23.6621H14.787V24.6917Z" fill="#1E1E1E"/>
<path d="M15.4209 23.6621H19.3372V24.672H16.5967V25.7332H19.1099V26.7409H16.5967V27.8601H19.3951V28.8699H15.4209V23.6621Z" fill="#1E1E1E"/>
<path d="M23.3175 28.8721L22.2969 27.2327H21.3594V28.8721H20.1836V23.6621H22.3035C23.6409 23.6621 24.4233 24.3649 24.4233 25.4458C24.4233 26.1617 24.0802 26.7114 23.4595 26.9988L24.6812 28.8721H23.3175ZM21.3594 26.1999H22.2477C22.8684 26.1999 23.2432 25.9376 23.2432 25.4458C23.2432 24.954 22.8684 24.6917 22.2477 24.6917H21.3561L21.3594 26.1999Z" fill="#1E1E1E"/>
<path d="M29.4178 24.6917H27.711V28.8721H26.5298V24.6917H24.8164V23.6621H29.4178V24.6917Z" fill="#1E1E1E"/>
<path d="M32.5188 27.8623H30.471L30.1028 28.8721H28.8877L30.93 23.6621H32.1516L34.1939 28.8721H32.8827L32.5188 27.8623ZM32.1516 26.8502L31.496 25.0348L30.8404 26.8502H32.1516Z" fill="#1E1E1E"/>
<path d="M35.9004 23.6621V28.8721H34.7246V23.6621H35.9004Z" fill="#1E1E1E"/>
<path d="M36.8311 23.662H37.8145L40.4447 26.7944V23.5986H41.6215V28.8076H40.6381L38.0068 25.6752V28.8721H36.8311V23.662Z" fill="#1E1E1E"/>
<path d="M42.5508 23.6621H43.4883L45.3044 26.577L47.1205 23.6621H48.057V28.8721H46.8812V26.0141L45.6596 28.0153H44.9482L43.7265 26.0141V28.8721H42.5508V23.6621Z" fill="#1E1E1E"/>
<path d="M48.9873 23.6621H52.9036V24.672H50.1631V25.7332H52.6763V26.7409H50.1631V27.8601H52.9615V28.8699H48.9873V23.6621Z" fill="#1E1E1E"/>
<path d="M53.751 23.662H54.7344L57.3646 26.7944V23.5986H58.5404V28.8076H57.5569L54.9267 25.6752V28.8721H53.751V23.662Z" fill="#1E1E1E"/>
<path d="M63.771 24.6917H62.062V28.8721H60.8851V24.6917H59.1729V23.6621H63.771V24.6917Z" fill="#1E1E1E"/>
<path d="M68.3813 28.884L68.1627 28.6349C67.764 28.8731 67.3083 28.9992 66.8438 28.9999C65.6167 28.9999 64.877 28.3736 64.877 27.4851C64.877 26.7747 65.3293 26.3211 65.9434 26.002C65.6725 25.65 65.4845 25.2981 65.4845 24.8828C65.4845 24.0773 66.2024 23.521 67.1454 23.521C68.0884 23.521 68.755 24.0522 68.755 24.8063C68.755 25.5156 68.2513 25.9506 67.6044 26.2828L68.2829 27.0752C68.3946 26.8408 68.4708 26.5911 68.5091 26.3342H69.5439C69.4919 26.8915 69.2932 27.4251 68.9681 27.8807L69.8215 28.884H68.3813ZM67.5607 27.9124L66.5772 26.7561C66.2407 26.9353 66.0407 27.1266 66.0407 27.4272C66.0407 27.8042 66.3773 28.0829 66.9258 28.0829C67.1485 28.0809 67.3669 28.0222 67.5607 27.9124ZM66.6297 24.8522C66.6297 25.1079 66.7848 25.3123 66.9979 25.5681C67.3793 25.3954 67.6535 25.1845 67.6535 24.8588C67.6579 24.7913 67.6483 24.7237 67.6253 24.6602C67.6024 24.5966 67.5665 24.5385 67.5201 24.4895C67.4736 24.4404 67.4175 24.4015 67.3553 24.3752C67.2931 24.3488 67.2261 24.3356 67.1585 24.3363C67.0897 24.3341 67.0211 24.3458 66.9569 24.3707C66.8926 24.3956 66.8341 24.4332 66.7847 24.4813C66.7354 24.5294 66.6962 24.5869 66.6695 24.6504C66.6429 24.7139 66.6293 24.7822 66.6297 24.8511V24.8522Z" fill="#1E1E1E"/>
<path d="M75.451 24.6917H73.7377V28.8721H72.5619V24.6917H70.8496V23.6621H75.451V24.6917Z" fill="#1E1E1E"/>
<path d="M76.084 23.6621H80.0003V24.672H77.2608V25.7332H79.7741V26.7409H77.2608V27.8601H80.0593V28.8699H76.084V23.6621Z" fill="#1E1E1E"/>
<path d="M80.5361 26.2633C80.5361 24.6851 81.7316 23.531 83.3542 23.531C84.8021 23.531 85.7713 24.3944 85.9844 25.4983H84.7955C84.6731 24.9999 84.1399 24.6032 83.3805 24.6032C82.9455 24.6143 82.532 24.795 82.2283 25.1066C81.9246 25.4183 81.7546 25.8363 81.7546 26.2715C81.7546 26.7068 81.9246 27.1248 82.2283 27.4364C82.532 27.7481 82.9455 27.9288 83.3805 27.9399C84.1366 27.9399 84.7573 27.4481 84.8469 26.9748H86.0369C85.8751 28.023 84.8152 29.0077 83.3542 29.0077C81.7316 29.0001 80.5361 27.8426 80.5361 26.2633Z" fill="#1E1E1E"/>
<path d="M91.3946 23.6621V28.8721H90.2145V26.7562H87.8881V28.8721H86.7178V23.6621H87.8946V25.7267H90.2145V23.6621H91.3946Z" fill="#1E1E1E"/>
<path d="M92.3242 23.662H93.3077L95.9378 26.7944V23.5986H97.1147V28.8076H96.1312L93.5 25.6752V28.8721H92.3242V23.662Z" fill="#1E1E1E"/>
<path d="M97.8115 26.2633C97.8115 24.6851 99.0201 23.531 100.653 23.531C102.285 23.531 103.494 24.6884 103.494 26.2633C103.494 27.8383 102.285 28.9957 100.653 28.9957C99.0201 28.9957 97.8115 27.8426 97.8115 26.2633ZM102.323 26.2633C102.323 25.2797 101.612 24.5759 100.656 24.5759C99.6997 24.5759 98.9884 25.2797 98.9884 26.2633C98.9884 27.247 99.6987 27.9519 100.656 27.9519C101.613 27.9519 102.323 27.2415 102.323 26.2633Z" fill="#1E1E1E"/>
<path d="M105.373 23.6621V27.8426H108.003V28.8721H104.201V23.6621H105.373Z" fill="#1E1E1E"/>
<path d="M108.255 26.2633C108.255 24.6851 109.463 23.531 111.096 23.531C112.728 23.531 113.937 24.6884 113.937 26.2633C113.937 27.8383 112.728 28.9957 111.096 28.9957C109.463 28.9957 108.255 27.8426 108.255 26.2633ZM112.766 26.2633C112.766 25.2797 112.055 24.5759 111.098 24.5759C110.141 24.5759 109.431 25.2797 109.431 26.2633C109.431 27.247 110.142 27.9519 111.098 27.9519C112.054 27.9519 112.766 27.2415 112.766 26.2633Z" fill="#1E1E1E"/>
<path d="M119.901 25.2732H118.609C118.39 24.8895 117.891 24.5955 117.252 24.5955C117.031 24.5882 116.811 24.6264 116.605 24.7076C116.399 24.7888 116.213 24.9114 116.056 25.0678C115.9 25.2241 115.777 25.4109 115.696 25.6166C115.615 25.8222 115.577 26.0424 115.584 26.2634C115.584 27.247 116.294 27.9519 117.252 27.9519C118.072 27.9519 118.64 27.4525 118.764 26.941H117.154V25.9573H120.017V26.2634C120.017 27.8427 118.822 28.9957 117.225 28.9957C115.603 28.9957 114.407 27.8383 114.407 26.2634C114.407 24.6884 115.603 23.531 117.225 23.531C118.602 23.5277 119.598 24.295 119.901 25.2732Z" fill="#1E1E1E"/>
<path d="M123.028 27.236V28.8754H121.853V27.236L119.886 23.6621H121.23L122.496 26.1234L123.757 23.6621H125.004L123.028 27.236Z" fill="#1E1E1E"/>
<path d="M96.6557 20.3783C94.65 20.3776 92.6938 19.7547 91.0562 18.5954C89.4187 17.4361 88.1803 15.7974 87.5115 13.9047C86.8426 12.012 86.7762 9.95828 87.3213 8.0262C87.8663 6.09413 88.9962 4.3786 90.5553 3.11566C90.743 2.96292 90.9373 2.81678 91.1349 2.67613C91.5178 2.41049 91.9904 2.30797 92.4488 2.39112C92.9071 2.47427 93.3138 2.73628 93.5791 3.11951C93.8445 3.50274 93.9469 3.97579 93.8639 4.43461C93.7808 4.89343 93.519 5.30042 93.1362 5.56606C93.0099 5.65287 92.8859 5.74627 92.7662 5.84407C91.7708 6.64934 91.0492 7.74372 90.7009 8.97651C90.3526 10.2093 90.3947 11.5198 90.8213 12.7277C91.248 13.9356 92.0383 14.9813 93.0834 15.7209C94.1284 16.4606 95.3769 16.8577 96.6568 16.8577H96.716C97.9619 16.8459 99.1753 16.458 100.197 15.7449C101.219 15.0317 102.003 14.0264 102.445 12.8604C102.887 11.6945 102.967 10.4221 102.675 9.20966C102.384 7.99724 101.733 6.90123 100.809 6.06493C100.606 5.88202 100.392 5.71244 100.167 5.55727C99.7839 5.29265 99.521 4.88635 99.4367 4.42774C99.3524 3.96912 99.4536 3.49577 99.7179 3.11181C99.9823 2.72786 100.388 2.46474 100.846 2.38035C101.305 2.29597 101.777 2.39722 102.161 2.66184C102.512 2.90457 102.848 3.16996 103.164 3.4563C104.615 4.76692 105.636 6.48542 106.095 8.38681C106.554 10.2882 106.428 12.2839 105.735 14.1126C105.041 15.9413 103.812 17.5179 102.209 18.6359C100.605 19.7539 98.7019 20.3612 96.7479 20.3783H96.6557Z" fill="#C55DF6"/>
<path d="M96.7428 0H96.7417C95.8413 0 95.1113 0.730072 95.1113 1.63066V4.47995C95.1113 5.38054 95.8413 6.11061 96.7417 6.11061H96.7428C97.6432 6.11061 98.3731 5.38054 98.3731 4.47995V1.63066C98.3731 0.730072 97.6432 0 96.7428 0Z" fill="#C55DF6"/>
</g>
<defs>
<clipPath id="clip0_36_2641">
<rect width="125" height="29" fill="white"/>
</clipPath>
</defs>
</svg>
