<svg width="880" height="571" viewBox="0 0 880 571" fill="none" xmlns="http://www.w3.org/2000/svg">
<line x1="64" y1="6" x2="64" y2="567" stroke="#E6E6E6" stroke-width="20"/>
<line y1="81" x2="880" y2="81" stroke="#E6E6E6" stroke-width="20"/>
<line y1="511" x2="880" y2="511" stroke="#E6E6E6" stroke-width="20"/>
<path d="M252 6L399 246.608V571" stroke="#E5E5E5" stroke-width="20"/>
<path d="M436.5 185C421.958 185 410 196.382 410 212.625C410 218.965 413.495 227.223 415.606 231.882L434.644 273.831C434.971 274.543 435.699 275.018 436.482 275.018C437.264 275.018 437.992 274.562 438.32 273.831L457.358 231.882C459.469 227.241 462.964 218.965 462.964 212.643C463 196.382 451.042 185 436.5 185ZM436.5 199.324C443.252 199.324 448.731 204.823 448.731 211.602C448.731 218.38 443.252 223.879 436.5 223.879C429.748 223.879 424.269 218.38 424.269 211.602C424.269 204.823 429.748 199.324 436.5 199.324Z" fill="#C55DF6"/>
<path d="M626 6V150.408L761 390.385V571" stroke="#E5E5E5" stroke-width="20"/>
<path d="M257.742 299.716H256.32V302.794C256.32 305.566 254.988 308.464 252.774 309.76L253.692 310.858C255.294 309.868 256.464 308.05 257.04 305.908C257.616 307.87 258.696 309.58 260.226 310.516L261.072 309.364C258.948 308.068 257.742 305.332 257.742 302.74V299.716ZM261.99 303.982H259.326V305.206H261.99V313.54H263.376V298.546H261.99V303.982ZM265.266 298.186V314.332H266.67V298.186H265.266ZM271.601 300.994H276.119V309.04H271.601V300.994ZM270.161 310.228H277.559V299.806H270.161V310.228ZM284.597 304.63H281.933V298.204H280.457V314.332H281.933V305.872H284.597V304.63ZM299.985 306.304C297.159 305.764 294.099 303.316 294.099 300.562V299.32H292.551V300.562C292.551 303.316 289.509 305.746 286.683 306.304L287.349 307.528C289.779 306.952 292.299 305.224 293.325 302.866C294.351 305.242 296.871 306.97 299.319 307.528L299.985 306.304ZM286.071 310.948V312.172H300.705V310.948H286.071ZM307.904 300.922H311.918V306.214H307.904V300.922ZM310.658 311.11V307.402H315.86V306.214H313.394V300.922H315.896V299.734H303.926V300.922H306.428V306.214H303.962V307.402H309.164V311.11H302.63V312.316H317.264V311.11H310.658ZM320.646 308.356C323.22 307.834 325.506 306.466 326.514 304.396C327.504 306.466 329.79 307.834 332.346 308.356L332.94 307.15C329.844 306.61 327.252 304.612 327.252 301.966H332.436V300.778H327.252V298.582H325.758V300.778H320.556V301.966H325.758C325.758 304.612 323.166 306.61 320.07 307.15L320.646 308.356ZM319.188 311.056V312.262H333.84V311.056H319.188ZM255.042 320.994H259.56V329.04H255.042V320.994ZM253.602 330.228H261V319.806H253.602V330.228ZM268.038 324.63H265.374V318.204H263.898V334.332H265.374V325.872H268.038V324.63ZM278.477 324.558H275.939C276.389 323.136 276.569 321.606 276.569 320.094H270.395V321.282H275.147C275.093 322.164 274.967 323.01 274.733 323.856L269.603 324.198L269.801 325.458L274.337 325.008C273.545 326.898 272.069 328.59 269.603 329.922L270.449 330.984C273.023 329.544 274.589 327.744 275.489 325.764H278.477V333.504H279.863V318.6H278.477V324.558ZM281.825 318.168V334.314H283.229V318.168H281.825ZM299.319 318.204H297.843V328.194H299.319V318.204ZM295.989 325.404C293.739 325.782 291.831 325.854 288.465 325.854V323.748H294.243V322.578H288.465V320.562H294.693V319.374H286.989V327.042H288.303C291.831 327.042 293.793 326.97 296.151 326.574L295.989 325.404ZM293.955 333.162C291.507 333.162 290.013 332.496 290.013 331.38C290.013 330.228 291.507 329.58 293.955 329.58C296.421 329.58 297.915 330.228 297.915 331.38C297.915 332.496 296.421 333.162 293.955 333.162ZM293.955 328.428C290.607 328.428 288.555 329.49 288.555 331.38C288.555 333.252 290.607 334.314 293.955 334.314C297.321 334.314 299.373 333.252 299.373 331.38C299.373 329.49 297.321 328.428 293.955 328.428Z" fill="#7B7B7B"/>
<circle cx="351.5" cy="306.5" r="9.5" fill="#C4C4C4"/>
<path d="M455.908 337.932V339.12H461.974C461.668 342.954 459.508 346.05 455.17 348.12L455.962 349.326C461.326 346.698 463.468 342.594 463.468 337.932H455.908ZM466.726 336.186V352.332H468.202V336.186H466.726ZM475.815 347.382C474.249 347.382 473.151 345.69 473.151 343.062C473.151 340.452 474.249 338.76 475.815 338.76C477.363 338.76 478.461 340.452 478.461 343.062C478.461 345.69 477.363 347.382 475.815 347.382ZM475.815 337.428C473.439 337.428 471.747 339.624 471.747 343.062C471.747 346.5 473.439 348.696 475.815 348.696C478.191 348.696 479.865 346.5 479.865 343.062C479.865 339.624 478.191 337.428 475.815 337.428ZM486.597 342.63H483.933V336.204H482.457V352.332H483.933V343.872H486.597V342.63ZM493.507 339.066H497.089V337.842H488.359V339.066H492.049V341.118C492.049 343.854 490.105 346.914 487.801 348.066L488.665 349.236C490.483 348.3 492.049 346.248 492.787 343.89C493.525 346.05 495.037 347.94 496.837 348.84L497.683 347.652C495.343 346.554 493.507 343.692 493.507 341.118V339.066ZM503.155 342.702H500.491V336.204H499.015V352.332H500.491V343.944H503.155V342.702ZM511.938 351.18C509.382 351.18 507.888 350.55 507.888 349.416C507.888 348.282 509.382 347.652 511.938 347.652C514.458 347.652 515.952 348.282 515.952 349.416C515.952 350.55 514.458 351.18 511.938 351.18ZM511.938 346.5C508.482 346.5 506.394 347.544 506.394 349.416C506.394 351.288 508.482 352.332 511.938 352.332C515.358 352.332 517.446 351.288 517.446 349.416C517.446 347.544 515.358 346.5 511.938 346.5ZM512.676 344.16V342.288H517.536V341.1H507.942V338.112H517.428V336.924H506.466V342.288H511.2V344.16H504.63V345.348H519.246V344.16H512.676ZM526.588 340.164H530.17V338.976H526.588V336.474H525.112V338.976H521.476V340.164H525.13V341.424C525.13 344.214 523.402 346.95 521.044 348.102L521.872 349.218C523.708 348.318 525.184 346.446 525.868 344.232C526.552 346.302 527.92 348.066 529.684 348.93L530.512 347.778C528.19 346.662 526.588 344.016 526.588 341.424V340.164ZM536.272 342.828H533.608V336.186H532.132V352.332H533.608V344.052H536.272V342.828Z" fill="#7B7B7B"/>
<circle cx="436.5" cy="345.5" r="9.5" fill="#C4C4C4"/>
<path d="M476.006 235.476H480.704V234.306H476.006V231.246H480.956V230.04H474.584V240.336H475.646C478.256 240.336 479.804 240.282 481.676 239.922L481.532 238.698C479.804 239.04 478.364 239.112 476.006 239.112V235.476ZM486.266 228.186V234.666H484.124V228.546H482.72V243.54H484.124V235.872H486.266V244.332H487.67V228.186H486.266ZM504.265 233.46C501.403 233.046 498.577 231.228 498.577 229.176V228.456H497.065V229.176C497.065 231.282 494.257 233.046 491.377 233.46L491.917 234.612C494.419 234.216 496.813 232.938 497.821 231.084C498.847 232.92 501.223 234.216 503.707 234.612L504.265 233.46ZM497.821 243.18C495.265 243.18 493.771 242.568 493.771 241.452C493.771 240.354 495.265 239.724 497.821 239.724C500.341 239.724 501.835 240.354 501.835 241.452C501.835 242.568 500.341 243.18 497.821 243.18ZM497.821 238.59C494.365 238.59 492.277 239.616 492.277 241.452C492.277 243.306 494.365 244.332 497.821 244.332C501.259 244.332 503.329 243.306 503.329 241.452C503.329 239.616 501.259 238.59 497.821 238.59ZM490.513 235.89V237.096H505.111V235.89H490.513ZM520.301 228.204H518.825V236.628H520.301V228.204ZM514.019 234.72H509.375V232.308H514.019V234.72ZM515.477 228.834H514.019V231.174H509.375V228.834H507.917V235.908H515.477V228.834ZM511.355 243V241.272H520.319V237.456H509.861V238.608H518.861V240.192H509.897V244.152H520.859V243H511.355ZM536.878 228.186H535.402V238.122H536.878V228.186ZM533.782 234.756C531.478 235.224 529.48 235.332 526.078 235.332V230.652H532.198V229.464H524.602V236.538H525.934C529.48 236.538 531.55 236.43 533.926 235.962L533.782 234.756ZM531.514 243.162C529.066 243.162 527.554 242.442 527.554 241.236C527.554 240.03 529.066 239.31 531.514 239.31C533.962 239.31 535.456 240.03 535.456 241.236C535.456 242.442 533.962 243.162 531.514 243.162ZM531.514 238.14C528.184 238.14 526.096 239.274 526.096 241.236C526.096 243.198 528.184 244.332 531.514 244.332C534.844 244.332 536.932 243.198 536.932 241.236C536.932 239.274 534.844 238.14 531.514 238.14ZM547.958 243.234C550.19 243.234 552.278 241.596 552.278 238.698C552.278 235.8 550.496 234.504 548.3 234.504C547.508 234.504 546.932 234.702 546.338 235.026L546.662 231.21H551.648V229.788H545.222L544.808 235.98L545.69 236.52C546.446 236.016 547.004 235.746 547.886 235.746C549.542 235.746 550.622 236.862 550.622 238.752C550.622 240.678 549.362 241.866 547.814 241.866C546.284 241.866 545.33 241.164 544.574 240.408L543.764 241.488C544.646 242.37 545.906 243.234 547.958 243.234ZM555.044 243H556.718V237.078H561.758V235.674H556.718V231.21H562.658V229.788H555.044V243Z" fill="#7B7B7B"/>
<path d="M118.146 103H95.81C92.5822 103 90 105.388 90 108.291V135.459C90 138.363 92.5822 140.75 95.81 140.75H118.146C121.374 140.75 123.957 138.363 123.957 135.459V108.291C123.957 105.388 121.374 103 118.146 103ZM102.007 105.646C102.007 105.194 102.459 104.807 102.976 104.807H110.981C111.497 104.807 111.949 105.194 111.949 105.646V108.098C111.949 108.55 111.497 108.937 110.981 108.937H102.976C102.459 108.937 102.007 108.55 102.007 108.098V105.646ZM97.0366 136.943C95.4227 136.943 94.1316 135.652 94.1316 134.039C94.1316 132.426 95.4227 131.135 97.0366 131.135C98.6505 131.135 99.9416 132.426 99.9416 134.039C99.9416 135.652 98.6505 136.943 97.0366 136.943ZM116.92 136.943C115.306 136.943 114.015 135.652 114.015 134.039C114.015 132.426 115.306 131.135 116.92 131.135C118.534 131.135 119.825 132.426 119.825 134.039C119.825 135.652 118.534 136.943 116.92 136.943ZM119.825 123.521C119.825 124.489 119.05 125.263 118.082 125.263H95.9392C94.9708 125.263 94.1961 124.489 94.1961 123.521V113.002C94.1961 112.034 94.9708 111.26 95.9392 111.26H118.082C119.05 111.26 119.825 112.034 119.825 113.002V123.521Z" fill="#7B7B7B"/>
<path d="M136.687 119.299C136.687 117.697 137.857 116.563 139.441 116.563C141.007 116.563 142.195 117.697 142.195 119.299C142.195 120.883 141.007 121.981 139.441 121.981C137.857 121.981 136.687 120.883 136.687 119.299ZM146.839 119.929V126.139H148.333V114.241H146.839V118.723H143.563C143.293 116.671 141.619 115.267 139.441 115.267C137.065 115.267 135.283 116.941 135.283 119.299C135.283 121.621 137.065 123.277 139.441 123.277C141.601 123.277 143.239 121.909 143.545 119.929H146.839ZM139.495 128.821V124.951H138.001V130.027H148.783V128.821H139.495ZM153.03 122.089C155.532 121.657 157.908 120.307 158.898 118.399C159.87 120.307 162.264 121.657 164.766 122.089L165.342 120.919C162.498 120.505 159.708 118.651 159.708 116.527V116.437H164.766V115.249H152.976V116.437H158.07V116.527C158.07 118.651 155.28 120.505 152.472 120.919L153.03 122.089ZM166.188 123.439H151.608V124.645H158.124V130.387H159.6V124.645H166.206L166.188 123.439ZM170.65 125.851H179.956V130.405H181.45V124.645H170.65V125.851ZM176.518 120.235C176.626 119.857 176.698 119.461 176.698 119.011C176.698 118.579 176.626 118.183 176.518 117.805H179.956V120.235H176.518ZM172.54 121.657C170.974 121.657 169.804 120.559 169.804 119.011C169.804 117.499 170.974 116.401 172.54 116.401C174.124 116.401 175.294 117.499 175.294 119.011C175.294 120.559 174.124 121.657 172.54 121.657ZM179.956 114.259V116.617H175.888C175.132 115.699 173.944 115.141 172.54 115.141C170.164 115.141 168.4 116.743 168.4 119.011C168.4 121.297 170.164 122.917 172.54 122.917C173.944 122.917 175.114 122.359 175.87 121.441H179.956V123.763H181.45V114.241L179.956 114.259Z" fill="#7B7B7B"/>
<path d="M118.183 531H95.8175C92.5856 531 90 533.277 90 536.046V561.954C90 564.723 92.5856 567 95.8175 567H118.183C121.414 567 124 564.723 124 561.954V536.046C124 533.277 121.414 531 118.183 531ZM102.023 533.523C102.023 533.092 102.475 532.723 102.992 532.723H111.008C111.525 532.723 111.977 533.092 111.977 533.523V535.862C111.977 536.292 111.525 536.662 111.008 536.662H102.992C102.475 536.662 102.023 536.292 102.023 535.862V533.523ZM97.0456 563.369C95.4297 563.369 94.1369 562.138 94.1369 560.6C94.1369 559.062 95.4297 557.831 97.0456 557.831C98.6616 557.831 99.9544 559.062 99.9544 560.6C99.9544 562.138 98.6616 563.369 97.0456 563.369ZM116.954 563.369C115.338 563.369 114.046 562.138 114.046 560.6C114.046 559.062 115.338 557.831 116.954 557.831C118.57 557.831 119.863 559.062 119.863 560.6C119.863 562.138 118.57 563.369 116.954 563.369ZM119.863 550.569C119.863 551.492 119.087 552.231 118.118 552.231H95.9468C94.9772 552.231 94.2015 551.492 94.2015 550.569V540.538C94.2015 539.615 94.9772 538.877 95.9468 538.877H118.118C119.087 538.877 119.863 539.615 119.863 540.538V550.569Z" fill="#7B7B7B"/>
<path d="M136.456 553.796H145.762V558.35H147.256V552.59H136.456V553.796ZM142.324 548.18C142.432 547.802 142.504 547.406 142.504 546.956C142.504 546.524 142.432 546.128 142.324 545.75H145.762V548.18H142.324ZM138.346 549.602C136.78 549.602 135.61 548.504 135.61 546.956C135.61 545.444 136.78 544.346 138.346 544.346C139.93 544.346 141.1 545.444 141.1 546.956C141.1 548.504 139.93 549.602 138.346 549.602ZM145.762 542.204V544.562H141.694C140.938 543.644 139.75 543.086 138.346 543.086C135.97 543.086 134.206 544.688 134.206 546.956C134.206 549.242 135.97 550.862 138.346 550.862C139.75 550.862 140.92 550.304 141.676 549.386H145.762V551.708H147.256V542.186L145.762 542.204ZM159.891 549.692C157.551 548.864 155.949 546.812 155.949 544.598V542.996H154.473V544.634C154.473 547.082 152.889 549.242 150.459 550.124L151.233 551.294C153.141 550.556 154.581 549.08 155.247 547.19C155.967 548.864 157.335 550.178 159.099 550.844L159.891 549.692ZM154.347 553.544H161.583V556.928H154.347V553.544ZM152.907 558.116H163.041V552.374H152.907V558.116ZM165.435 546.218H163.041V542.204H161.565V551.636H163.041V547.442H165.435V546.218ZM169.573 553.796H178.879V558.35H180.373V552.59H169.573V553.796ZM175.441 548.18C175.549 547.802 175.621 547.406 175.621 546.956C175.621 546.524 175.549 546.128 175.441 545.75H178.879V548.18H175.441ZM171.463 549.602C169.897 549.602 168.727 548.504 168.727 546.956C168.727 545.444 169.897 544.346 171.463 544.346C173.047 544.346 174.217 545.444 174.217 546.956C174.217 548.504 173.047 549.602 171.463 549.602ZM178.879 542.204V544.562H174.811C174.055 543.644 172.867 543.086 171.463 543.086C169.087 543.086 167.323 544.688 167.323 546.956C167.323 549.242 169.087 550.862 171.463 550.862C172.867 550.862 174.037 550.304 174.793 549.386H178.879V551.708H180.373V542.186L178.879 542.204Z" fill="#7B7B7B"/>
<path d="M679.146 103H656.81C653.582 103 651 105.388 651 108.291V135.459C651 138.363 653.582 140.75 656.81 140.75H679.146C682.374 140.75 684.957 138.363 684.957 135.459V108.291C684.957 105.388 682.374 103 679.146 103ZM663.007 105.646C663.007 105.194 663.459 104.807 663.976 104.807H671.981C672.497 104.807 672.949 105.194 672.949 105.646V108.098C672.949 108.55 672.497 108.937 671.981 108.937H663.976C663.459 108.937 663.007 108.55 663.007 108.098V105.646ZM658.037 136.943C656.423 136.943 655.132 135.652 655.132 134.039C655.132 132.426 656.423 131.135 658.037 131.135C659.651 131.135 660.942 132.426 660.942 134.039C660.942 135.652 659.651 136.943 658.037 136.943ZM677.92 136.943C676.306 136.943 675.015 135.652 675.015 134.039C675.015 132.426 676.306 131.135 677.92 131.135C679.534 131.135 680.825 132.426 680.825 134.039C680.825 135.652 679.534 136.943 677.92 136.943ZM680.825 123.521C680.825 124.489 680.05 125.263 679.082 125.263H656.939C655.971 125.263 655.196 124.489 655.196 123.521V113.002C655.196 112.034 655.971 111.26 656.939 111.26H679.082C680.05 111.26 680.825 112.034 680.825 113.002V123.521Z" fill="#7B7B7B"/>
<path d="M706.762 124.264H708.256V112.204H706.762V115.984H703.234V117.208H706.762V124.264ZM704.386 120.448C702.064 119.584 700.48 117.46 700.48 115.21V113.158H699.004V115.156C699.004 117.622 697.384 119.908 694.972 120.79L695.746 121.96C697.636 121.204 699.076 119.674 699.76 117.748C700.444 119.494 701.83 120.88 703.612 121.582L704.386 120.448ZM699.346 126.766V122.932H697.87V127.972H708.634V126.766H699.346ZM720.135 116.38V117.586H723.321V121.816H724.815V112.204H723.321V116.38H720.135ZM721.035 120.052C718.695 119.224 717.111 117.19 717.111 115.12V114.562H720.657V113.374H712.035V114.562H715.635V115.12C715.635 117.442 713.979 119.62 711.567 120.502L712.341 121.672C714.231 120.952 715.725 119.44 716.409 117.568C717.111 119.224 718.497 120.556 720.297 121.204L721.035 120.052ZM719.487 127.18C717.057 127.18 715.581 126.496 715.581 125.326C715.581 124.156 717.057 123.454 719.487 123.454C721.917 123.454 723.393 124.156 723.393 125.326C723.393 126.496 721.917 127.18 719.487 127.18ZM719.487 122.32C716.175 122.32 714.105 123.418 714.105 125.326C714.105 127.234 716.175 128.332 719.487 128.332C722.799 128.332 724.869 127.234 724.869 125.326C724.869 123.418 722.799 122.32 719.487 122.32ZM739.375 115.444H729.943V119.332H741.175V118.18H731.401V116.542H740.833V112.708H729.907V113.842H739.375V115.444ZM735.361 127.216C732.751 127.216 731.275 126.676 731.275 125.722C731.275 124.768 732.751 124.228 735.361 124.228C737.971 124.228 739.447 124.768 739.447 125.722C739.447 126.676 737.971 127.216 735.361 127.216ZM735.361 123.13C731.833 123.13 729.781 124.048 729.781 125.722C729.781 127.396 731.833 128.314 735.361 128.314C738.889 128.314 740.941 127.396 740.941 125.722C740.941 124.048 738.889 123.13 735.361 123.13ZM728.071 120.7V121.888H742.705V120.7H728.071ZM747.132 123.796H756.438V128.35H757.932V122.59H747.132V123.796ZM753 118.18C753.108 117.802 753.18 117.406 753.18 116.956C753.18 116.524 753.108 116.128 753 115.75H756.438V118.18H753ZM749.022 119.602C747.456 119.602 746.286 118.504 746.286 116.956C746.286 115.444 747.456 114.346 749.022 114.346C750.606 114.346 751.776 115.444 751.776 116.956C751.776 118.504 750.606 119.602 749.022 119.602ZM756.438 112.204V114.562H752.37C751.614 113.644 750.426 113.086 749.022 113.086C746.646 113.086 744.882 114.688 744.882 116.956C744.882 119.242 746.646 120.862 749.022 120.862C750.426 120.862 751.596 120.304 752.352 119.386H756.438V121.708H757.932V112.186L756.438 112.204Z" fill="#7B7B7B"/>
<path d="M816.183 531H793.817C790.586 531 788 533.277 788 536.046V561.954C788 564.723 790.586 567 793.817 567H816.183C819.414 567 822 564.723 822 561.954V536.046C822 533.277 819.414 531 816.183 531ZM800.023 533.523C800.023 533.092 800.475 532.723 800.992 532.723H809.008C809.525 532.723 809.977 533.092 809.977 533.523V535.862C809.977 536.292 809.525 536.662 809.008 536.662H800.992C800.475 536.662 800.023 536.292 800.023 535.862V533.523ZM795.046 563.369C793.43 563.369 792.137 562.138 792.137 560.6C792.137 559.062 793.43 557.831 795.046 557.831C796.662 557.831 797.954 559.062 797.954 560.6C797.954 562.138 796.662 563.369 795.046 563.369ZM814.954 563.369C813.338 563.369 812.046 562.138 812.046 560.6C812.046 559.062 813.338 557.831 814.954 557.831C816.57 557.831 817.863 559.062 817.863 560.6C817.863 562.138 816.57 563.369 814.954 563.369ZM817.863 550.569C817.863 551.492 817.087 552.231 816.118 552.231H793.947C792.977 552.231 792.202 551.492 792.202 550.569V540.538C792.202 539.615 792.977 538.877 793.947 538.877H816.118C817.087 538.877 817.863 539.615 817.863 540.538V550.569Z" fill="#7B7B7B"/>
<path d="M842.762 554.264H844.256V542.204H842.762V545.984H839.234V547.208H842.762V554.264ZM840.386 550.448C838.064 549.584 836.48 547.46 836.48 545.21V543.158H835.004V545.156C835.004 547.622 833.384 549.908 830.972 550.79L831.746 551.96C833.636 551.204 835.076 549.674 835.76 547.748C836.444 549.494 837.83 550.88 839.612 551.582L840.386 550.448ZM835.346 556.766V552.932H833.87V557.972H844.634V556.766H835.346ZM858.817 545.444H849.385V549.332H860.617V548.18H850.843V546.542H860.275V542.708H849.349V543.842H858.817V545.444ZM854.803 557.216C852.193 557.216 850.717 556.676 850.717 555.722C850.717 554.768 852.193 554.228 854.803 554.228C857.413 554.228 858.889 554.768 858.889 555.722C858.889 556.676 857.413 557.216 854.803 557.216ZM854.803 553.13C851.275 553.13 849.223 554.048 849.223 555.722C849.223 557.396 851.275 558.314 854.803 558.314C858.331 558.314 860.383 557.396 860.383 555.722C860.383 554.048 858.331 553.13 854.803 553.13ZM847.513 550.7V551.888H862.147V550.7H847.513ZM866.573 553.796H875.879V558.35H877.373V552.59H866.573V553.796ZM872.441 548.18C872.549 547.802 872.621 547.406 872.621 546.956C872.621 546.524 872.549 546.128 872.441 545.75H875.879V548.18H872.441ZM868.463 549.602C866.897 549.602 865.727 548.504 865.727 546.956C865.727 545.444 866.897 544.346 868.463 544.346C870.047 544.346 871.217 545.444 871.217 546.956C871.217 548.504 870.047 549.602 868.463 549.602ZM875.879 542.204V544.562H871.811C871.055 543.644 869.867 543.086 868.463 543.086C866.087 543.086 864.323 544.688 864.323 546.956C864.323 549.242 866.087 550.862 868.463 550.862C869.867 550.862 871.037 550.304 871.793 549.386H875.879V551.708H877.373V542.186L875.879 542.204Z" fill="#7B7B7B"/>
<path d="M431.61 421.244C431.61 419.642 432.78 418.508 434.364 418.508C435.93 418.508 437.118 419.642 437.118 421.244C437.118 422.828 435.93 423.926 434.364 423.926C432.78 423.926 431.61 422.828 431.61 421.244ZM441.762 421.874V428.084H443.256V416.186H441.762V420.668H438.486C438.216 418.616 436.542 417.212 434.364 417.212C431.988 417.212 430.206 418.886 430.206 421.244C430.206 423.566 431.988 425.222 434.364 425.222C436.524 425.222 438.162 423.854 438.468 421.874H441.762ZM434.418 430.766V426.896H432.924V431.972H443.706V430.766H434.418ZM447.953 424.034C450.455 423.602 452.831 422.252 453.821 420.344C454.793 422.252 457.187 423.602 459.689 424.034L460.265 422.864C457.421 422.45 454.631 420.596 454.631 418.472V418.382H459.689V417.194H447.899V418.382H452.993V418.472C452.993 420.596 450.203 422.45 447.395 422.864L447.953 424.034ZM461.111 425.384H446.531V426.59H453.047V432.332H454.523V426.59H461.129L461.111 425.384ZM471.117 429.128V426.086H476.283V424.898H466.347V422.288H475.905V417.374H464.853V418.58H474.465V421.1H464.889V426.086H469.623V429.128H463.053V430.334H477.723V429.128H471.117Z" fill="#7B7B7B"/>
<path d="M439.348 537.118H429.772V542.14H441.166V540.934H431.23V538.306H440.788V533.428H429.736V534.616H439.348V537.118ZM427.936 545.074V546.298H442.606V545.074H427.936ZM446.763 533.914H445.305V544.246H446.331C448.275 544.246 450.075 544.138 452.181 543.706L451.983 542.464C450.111 542.842 448.491 542.95 446.763 542.968V533.914ZM453.387 537.604H449.787V538.828H453.387V547.522H454.791V532.582H453.387V537.604ZM456.825 532.168V548.332H458.229V532.168H456.825ZM470.395 539.782C468.073 538.99 466.489 536.974 466.489 534.796V533.014H465.013V534.67C465.013 537.136 463.447 539.332 460.999 540.214L461.773 541.384C463.663 540.664 465.103 539.188 465.769 537.298C466.489 538.954 467.875 540.286 469.621 540.934L470.395 539.782ZM468.469 547.162C466.075 547.162 464.617 546.496 464.617 545.38C464.617 544.246 466.075 543.58 468.469 543.58C470.845 543.58 472.303 544.246 472.303 545.38C472.303 546.496 470.845 547.162 468.469 547.162ZM468.469 542.428C465.175 542.428 463.141 543.49 463.141 545.38C463.141 547.252 465.175 548.314 468.469 548.314C471.745 548.314 473.779 547.252 473.779 545.38C473.779 543.49 471.745 542.428 468.469 542.428ZM473.599 536.362V532.204H472.123V541.978H473.599V537.586H475.993V536.362H473.599ZM491.544 540.304C488.718 539.764 485.658 537.316 485.658 534.562V533.32H484.11V534.562C484.11 537.316 481.068 539.746 478.242 540.304L478.908 541.528C481.338 540.952 483.858 539.224 484.884 536.866C485.91 539.242 488.43 540.97 490.878 541.528L491.544 540.304ZM477.63 544.948V546.172H492.264V544.948H477.63ZM508.012 534.544H502.234V532.438H500.758V534.544H494.908V535.75H508.012V534.544ZM497.68 539.908C497.68 538.72 499.138 538 501.496 538C503.818 538 505.258 538.72 505.258 539.908C505.258 541.114 503.818 541.834 501.496 541.834C499.138 541.834 497.68 541.114 497.68 539.908ZM502.234 545.236V542.968C505.042 542.788 506.752 541.708 506.752 539.908C506.752 537.964 504.718 536.848 501.496 536.848C498.22 536.848 496.186 537.964 496.186 539.908C496.186 541.708 497.914 542.806 500.758 542.968V545.236H494.188V546.442H508.822V545.236H502.234ZM524.373 532.204H522.951V540.916H524.373V532.204ZM519.837 540.754H521.241V532.492H519.837V535.822H517.695V537.01H519.837V540.754ZM518.325 538.666C516.507 539.008 514.977 539.08 512.889 539.08V537.19H516.957V536.056H512.889V534.328H517.587V533.158H511.485V540.232H512.511C514.869 540.232 516.489 540.16 518.451 539.8L518.325 538.666ZM515.211 547V545.38H524.373V541.654H513.717V542.806H522.915V544.282H513.753V548.152H524.985V547H515.211ZM433.372 553.59H431.914V556.488C431.914 559.422 430.078 562.518 427.756 563.706L428.638 564.894C430.456 563.922 431.95 561.906 432.652 559.548C433.39 561.762 434.848 563.652 436.558 564.57L437.476 563.4C435.208 562.266 433.372 559.332 433.372 556.488V553.59ZM443.038 558.738H440.374V552.204H438.898V568.332H440.374V559.962H443.038V558.738ZM445.215 553.932V555.12H451.101C450.831 558.9 448.833 561.978 444.495 564.102L445.305 565.254C450.669 562.608 452.577 558.522 452.577 553.932H445.215ZM456.321 552.204V558.666H452.541V559.872H456.321V568.332H457.797V552.204H456.321ZM463.483 559.44H469.441V553.68H461.953V554.886H467.947V558.252H462.007V564.444H463.339C466.111 564.444 468.559 564.336 471.475 563.85L471.331 562.644C468.505 563.094 466.129 563.22 463.483 563.22V559.44ZM472.843 552.168V568.35H474.319V552.168H472.843Z" fill="#7B7B7B"/>
<path d="M454.262 53.18C451.706 53.18 450.212 52.568 450.212 51.506C450.212 50.426 451.706 49.814 454.262 49.814C456.8 49.814 458.276 50.426 458.276 51.506C458.276 52.568 456.8 53.18 454.262 53.18ZM454.262 48.68C450.806 48.68 448.718 49.688 448.718 51.506C448.718 53.306 450.806 54.314 454.262 54.314C457.682 54.314 459.77 53.306 459.77 51.506C459.77 49.688 457.682 48.68 454.262 48.68ZM450.338 41.552H458.186V43.388H450.338V41.552ZM455 46.268V44.558H459.644V38.618H458.186V40.418H450.338V38.618H448.88V44.558H453.524V46.268H446.936V47.474H461.552V46.268H455ZM470.803 39.932C473.341 39.932 474.961 40.688 474.961 41.966C474.961 43.244 473.341 43.982 470.803 43.982C468.265 43.982 466.645 43.244 466.645 41.966C466.645 40.688 468.265 39.932 470.803 39.932ZM470.803 45.17C474.259 45.17 476.473 43.982 476.473 41.966C476.473 39.95 474.259 38.744 470.803 38.744C467.347 38.744 465.133 39.95 465.133 41.966C465.133 43.982 467.347 45.17 470.803 45.17ZM466.861 49.292H465.385V53.972H476.491V52.766H466.861V49.292ZM463.495 46.682V47.87H478.093V46.682H463.495ZM485.489 39.59H484.031V42.488C484.031 45.422 482.195 48.518 479.873 49.706L480.755 50.894C482.573 49.922 484.067 47.906 484.769 45.548C485.507 47.762 486.965 49.652 488.675 50.57L489.593 49.4C487.325 48.266 485.489 45.332 485.489 42.488V39.59ZM495.155 44.738H492.491V38.204H491.015V54.332H492.491V45.962H495.155V44.738ZM504.676 51.128V48.086H509.842V46.898H499.906V44.288H509.464V39.374H498.412V40.58H508.024V43.1H498.448V48.086H503.182V51.128H496.612V52.334H511.282V51.128H504.676Z" fill="#7B7B7B"/>
<path d="M478.488 217.336C482.592 217.336 485.016 214.864 485.016 211.96C485.016 209.392 483.6 208.024 481.44 207.136L479.112 206.152C477.6 205.552 476.352 205.096 476.352 203.824C476.352 202.648 477.336 201.952 478.896 201.952C480.36 201.952 481.536 202.48 482.664 203.416L484.464 201.184C483.024 199.72 480.96 198.904 478.896 198.904C475.296 198.904 472.752 201.136 472.752 204.04C472.752 206.632 474.552 208.072 476.352 208.816L478.728 209.824C480.312 210.496 481.392 210.904 481.392 212.224C481.392 213.472 480.408 214.264 478.56 214.264C477 214.264 475.32 213.472 474.048 212.296L472.008 214.744C473.736 216.4 476.112 217.336 478.488 217.336ZM492.025 207.736C492.553 205.888 493.081 203.872 493.537 201.928H493.657C494.161 203.848 494.641 205.888 495.193 207.736L495.721 209.68H491.497L492.025 207.736ZM485.881 217H489.481L490.729 212.44H496.489L497.737 217H501.457L495.745 199.216H491.569L485.881 217ZM503.536 217H514.696V214.024H507.088V209.272H513.328V206.296H507.088V202.192H514.432V199.216H503.536V217ZM518.301 217H521.853V210.28H524.325L527.973 217H531.933L527.781 209.728C529.821 208.936 531.165 207.28 531.165 204.616C531.165 200.536 528.213 199.216 524.493 199.216H518.301V217ZM521.853 207.472V202.048H524.157C526.437 202.048 527.709 202.696 527.709 204.616C527.709 206.512 526.437 207.472 524.157 207.472H521.853ZM538.337 207.736C538.865 205.888 539.393 203.872 539.849 201.928H539.969C540.473 203.848 540.953 205.888 541.505 207.736L542.033 209.68H537.809L538.337 207.736ZM532.193 217H535.793L537.041 212.44H542.801L544.049 217H547.769L542.057 199.216H537.881L532.193 217ZM556.623 217.336C561.327 217.336 564.567 213.808 564.567 208.048C564.567 202.288 561.327 198.904 556.623 198.904C551.919 198.904 548.679 202.264 548.679 208.048C548.679 213.808 551.919 217.336 556.623 217.336ZM556.623 214.264C553.983 214.264 552.303 211.84 552.303 208.048C552.303 204.232 553.983 201.952 556.623 201.952C559.263 201.952 560.943 204.232 560.943 208.048C560.943 211.84 559.263 214.264 556.623 214.264ZM568.036 217H571.396V209.872C571.396 207.832 571.132 205.6 570.964 203.68H571.084L572.884 207.496L578.02 217H581.62V199.216H578.26V206.32C578.26 208.336 578.548 210.688 578.716 212.536H578.596L576.82 208.696L571.66 199.216H568.036V217Z" fill="#C55DF6"/>
</svg>
