<svg width="819" height="849" viewBox="0 0 819 849" fill="none" xmlns="http://www.w3.org/2000/svg">
<path d="M806.59 349.36C787.18 269.8 744.46 198.76 683.07 143.92C669.76 132.03 655.54 120.9 640.79 110.83L640.7 110.77C623.63 99.1602 603.02 94.8102 582.65 98.5202C562.24 102.24 544.51 113.6 532.73 130.51C520.94 147.44 516.52 167.9 520.28 188.12C524.04 208.33 535.53 225.89 552.62 237.55C561.78 243.81 570.62 250.73 578.88 258.11C616.88 292.1 643.32 336.11 655.32 385.39C667.32 434.66 664.06 485.75 645.88 533.13C627.7 580.52 595.88 620.89 553.85 649.88C511.81 678.87 462.51 694.45 411.28 694.93H408.83C356.12 694.93 305.51 679.02 262.47 648.91C219.44 618.81 187.41 576.91 169.85 527.76C152.29 478.61 150.58 426.12 164.92 375.95C179.26 325.79 208.5 281.95 249.5 249.15C254.44 245.16 259.53 241.38 264.64 237.91C281.71 226.2 293.15 208.62 296.85 188.39C300.56 168.16 296.08 147.71 284.24 130.81C272.41 113.93 254.65 102.61 234.24 98.9502C213.82 95.2902 193.19 99.7202 176.1 111.44C167.35 117.6 159.5 123.48 152.13 129.39L151.73 129.72L151.16 130.17C118.69 156.26 90.57 187 67.54 221.56C44.38 256.32 26.85 294.25 15.41 334.32C3.96 374.4 -1.15 415.81 0.220001 457.43C1.59 499.05 9.39 540.04 23.42 579.29C37.45 618.54 57.43 655.27 82.81 688.47C108.19 721.67 138.47 750.69 172.82 774.72C207.16 798.76 244.9 817.34 284.99 829.96C325.07 842.58 366.73 848.98 408.79 849H412.67C495.36 848.28 574.94 823.18 642.8 776.41C710.67 729.63 762.05 664.46 791.4 587.95C820.74 511.43 826 428.92 806.59 349.36ZM788.59 586.88C759.46 662.83 708.45 727.51 641.09 773.95C573.73 820.38 494.73 845.3 412.63 846.01H408.79C324.43 845.98 243.43 820.48 174.55 772.28C105.67 724.07 54.39 656.99 26.25 578.29C-1.9 499.57 -4.65 415.5 18.28 335.16C41.16 254.98 87.8 184.88 153.17 132.4L153.64 132.02C161.06 126.05 168.97 120.12 177.83 113.89C194.23 102.64 214.07 98.3902 233.7 101.91C253.33 105.43 270.41 116.31 281.78 132.54C293.15 148.77 297.45 168.42 293.89 187.86C290.33 207.3 279.34 224.19 262.93 235.45C257.79 238.95 252.65 242.76 247.66 246.79L247.61 246.83C206.13 280 176.54 324.36 162.03 375.13C147.52 425.9 149.24 479.03 167.02 528.77C184.8 578.52 217.21 620.91 260.75 651.37C304.29 681.83 355.5 697.94 408.83 697.93H411.29C463.13 697.44 513.02 681.68 555.55 652.35C598.08 623.02 630.29 582.16 648.68 534.2C667.08 486.24 670.38 434.54 658.23 384.67C646.08 334.8 619.34 290.26 580.88 255.86C572.52 248.4 563.58 241.4 554.31 235.06C537.88 223.85 526.84 206.98 523.23 187.56C519.62 168.13 523.87 148.48 535.19 132.21C546.52 115.95 563.56 105.03 583.19 101.45C602.81 97.8802 622.67 102.08 639.1 113.28L639.17 113.33C653.79 123.32 667.88 134.35 681.08 146.14C742.02 200.57 784.42 271.08 803.69 350.05C822.94 429.04 817.72 510.93 788.59 586.88Z" fill="white"/>
<path d="M409.03 259.08C368.51 259.08 335.57 227.12 335.57 187.84V71.23C335.57 31.96 368.5 0 408.98 0H409.03C449.51 0 482.44 31.96 482.44 71.23V187.84C482.44 227.12 449.51 259.08 409.03 259.08ZM408.98 3C370.16 3 338.57 33.61 338.57 71.23V187.84C338.57 225.47 370.15 256.08 408.98 256.08C447.85 256.08 479.43 225.47 479.43 187.84V71.23C479.44 33.61 447.85 3 409.03 3H408.98Z" fill="white"/>
</svg>
