<svg width="317" height="53" viewBox="0 0 317 53" fill="none" xmlns="http://www.w3.org/2000/svg">
<path d="M39.2788 19.734H28.7267C28.1088 15.7523 25.1244 13.3406 20.2529 13.3406C15.4812 13.3406 12.8432 15.2456 12.8432 17.9952C12.8432 21.4148 16.379 22.5943 25.3128 24.444C35.8649 26.6314 39.4451 31.8481 39.4451 38.6901C39.4451 47.4399 31.1957 52.7673 20.9789 52.7673C9.69532 52.7673 1.44598 46.6563 0.99707 36.8959H11.4937C12.0479 41.2708 15.8719 44.1864 21.7077 44.1864C25.8643 44.1864 28.9484 42.1125 28.9484 39.1387C28.9484 35.4948 25.8615 34.0355 17.723 32.5209C7.78886 30.6713 2.39921 26.5761 2.39921 17.9952C2.39921 9.74929 10.5959 4.81506 20.9235 4.81506C31.1403 4.81506 38.7745 11.0396 39.2788 19.734Z" fill="white"/>
<path d="M73.0134 42.4642H55.2789L52.0811 51.3248H41.5262L59.2608 5.61255H69.8683L87.6029 51.3248H76.214L73.0134 42.4642ZM69.8711 33.6036L64.1461 17.6712L58.4212 33.6009L69.8711 33.6036Z" fill="white"/>
<path d="M91.6876 5.61255H125.702V14.4731H101.904V23.7823H123.748V32.6428H101.904V42.4587H126.206V51.3192H91.6876V5.61255Z" fill="white"/>
<path d="M160.603 51.3027L151.736 36.8876H143.6V51.3027H133.386V5.59045H151.797C163.415 5.59045 170.207 11.7596 170.207 21.2404C170.207 27.5204 167.231 32.3438 161.844 34.8691L172.452 51.3027H160.603ZM143.594 27.8582H151.353C156.74 27.8582 159.996 25.5572 159.996 21.2404C159.996 16.9237 156.723 14.6199 151.348 14.6199H143.589L143.594 27.8582Z" fill="white"/>
<path d="M205.973 42.4642H188.238L185.038 51.3248H174.485L192.22 5.61255H202.828L220.562 51.3248H209.173L205.973 42.4642ZM202.83 33.6036L197.105 17.6712L191.38 33.6009L202.83 33.6036Z" fill="white"/>
<path d="M274.997 5.43262H283.529L306.373 32.8173V5.43262H316.59V51.3165H308.058L285.214 22.9904V51.3165H274.997V5.43262Z" fill="white"/>
<path d="M245.283 51.3331C240.17 51.3325 235.182 49.7484 231.007 46.7987C226.832 43.8491 223.675 39.6789 221.97 34.8622C220.265 30.0455 220.095 24.8191 221.485 19.9023C222.875 14.9855 225.756 10.6201 229.732 7.40685C230.211 7.0192 230.707 6.64816 231.211 6.29928C232.188 5.65694 233.377 5.42178 234.525 5.64405C235.673 5.86632 236.688 6.52839 237.354 7.48878C238.02 8.44917 238.284 9.63169 238.088 10.7836C237.893 11.9356 237.255 12.9656 236.31 13.6535C235.991 13.8751 235.673 14.1132 235.368 14.3596C232.83 16.4085 230.991 19.193 230.103 22.3297C229.215 25.4664 229.322 28.8011 230.41 31.8745C231.497 34.9479 233.511 37.6089 236.175 39.4911C238.838 41.3732 242.02 42.3839 245.283 42.3839H245.435C248.611 42.3538 251.703 41.3669 254.308 39.5522C256.914 37.7374 258.91 35.1794 260.037 32.2126C261.164 29.2457 261.368 26.0081 260.624 22.9232C259.88 19.8383 258.221 17.0495 255.865 14.9217C255.349 14.4555 254.803 14.0236 254.23 13.6286C253.275 12.9459 252.626 11.9155 252.424 10.7595C252.222 9.60338 252.482 8.41419 253.149 7.44815C253.816 6.48212 254.836 5.81657 255.989 5.59494C257.143 5.3733 258.337 5.61333 259.315 6.26328C263.643 9.24304 266.909 13.5231 268.639 18.4827C270.369 23.4424 270.472 28.8236 268.935 33.846C267.397 38.8684 264.298 43.2708 260.088 46.4146C255.877 49.5585 250.774 51.2803 245.518 51.3303L245.283 51.3331Z" fill="white"/>
<path d="M245.266 0H245.183C242.9 0 241.049 1.84962 241.049 4.13124V11.5021C241.049 13.7837 242.9 15.6334 245.183 15.6334H245.266C247.55 15.6334 249.401 13.7837 249.401 11.5021V4.13124C249.401 1.84962 247.55 0 245.266 0Z" fill="white"/>
</svg>
